<svg width="24" height="24" viewBox="0 0 24 24" fill="none" xmlns="http://www.w3.org/2000/svg">
<g clip-path="url(#clip0_0_1)">
<line x1="2.06342" y1="15.1565" x2="12.2931" y2="8.51325" stroke="#8380C8" stroke-width="1.16077"/>
<line x1="11.7131" y1="8.51325" x2="21.9428" y2="15.1565" stroke="#8380C8" stroke-width="1.16077"/>
<line x1="21.944" y1="15.1128" x2="11.7318" y2="21.7829" stroke="#8380C8" stroke-width="1.16077"/>
<line x1="12.3118" y1="21.7813" x2="2.06471" y2="15.165" stroke="#8380C8" stroke-width="1.16077"/>
<path d="M0.98353 15.1619L3.04715 13.8299V16.4939L0.98353 15.1619Z" fill="#8380C8"/>
<path d="M23.0165 15.1376L20.9025 16.4647V13.8106L23.0165 15.1376Z" fill="#8380C8"/>
<path d="M7.01559 11.5567C9.7446 12.6635 10.4053 16.1813 7.01559 18.8363" stroke="#8380C8" stroke-width="0.5"/>
<path d="M12.7766 6.13764L12.6869 4.50026L12.5074 2.41428H12.4177L11.2065 5.56568H10.3317L9.22146 2.41428H9.15417L8.94108 4.38811L8.81772 6.13764H7.86445L8.41398 0.732034H9.72613L9.93921 1.5283L10.8028 4.08531H10.8701L11.7785 1.5283L12.014 0.732034H13.2925L13.7859 6.13764H12.7766ZM16.1142 2.15633C16.6152 2.15633 16.989 2.25353 17.2357 2.44792C17.4825 2.64231 17.6058 2.91147 17.6058 3.2554C17.6058 3.3526 17.5871 3.67035 17.5497 4.20867C17.5497 4.20867 17.5385 4.51521 17.5161 5.1283C17.5161 5.22549 17.5273 5.29278 17.5497 5.33017C17.5722 5.36007 17.617 5.37503 17.6843 5.37503C17.7516 5.37503 17.8301 5.36381 17.9198 5.34138L18.0096 5.40867L17.8974 5.99185C17.718 6.104 17.5161 6.17503 17.2918 6.20493C16.9329 6.17503 16.7161 5.96942 16.6413 5.58811H16.5853C16.3011 5.88717 16.0133 6.09652 15.7217 6.21615C15.318 6.20867 15.0002 6.10026 14.7684 5.89091C14.5367 5.68157 14.4208 5.40119 14.4208 5.04979C14.4208 4.504 14.7086 4.17503 15.2843 4.06288L16.574 3.82736V3.4797C16.574 3.11334 16.4021 2.93017 16.0582 2.93017C15.7142 2.93017 15.3105 3.09091 14.8469 3.41241L14.7572 3.36755L14.6339 2.62736C15.1273 2.31334 15.6208 2.15633 16.1142 2.15633ZM15.6768 4.57876C15.5049 4.61615 15.4189 4.72082 15.4189 4.89278C15.4189 5.22923 15.5647 5.39745 15.8563 5.39745C16.0731 5.39745 16.3049 5.26661 16.5516 5.00493L16.574 4.37689L15.6768 4.57876ZM20.224 3.53577L20.7511 2.63858L20.9642 2.24605H21.9399L20.8184 4.1526L21.9959 6.104L20.8184 6.1825L20.6277 5.68904L20.0782 4.79185L19.495 5.74512L19.3044 6.13764H18.3174L19.4502 4.18624L18.3174 2.26848L19.5062 2.20119L19.6857 2.67222L20.224 3.53577ZM23.0594 5.00493C23.4258 5.00493 23.6089 5.19559 23.6089 5.57689C23.6089 5.76381 23.5529 5.91334 23.4407 6.02549C23.336 6.13764 23.194 6.19372 23.0145 6.19372C22.8351 6.19372 22.693 6.14512 22.5884 6.04792C22.4912 5.94325 22.4426 5.80119 22.4426 5.62175C22.4426 5.44231 22.4949 5.29652 22.5996 5.18437C22.7117 5.06474 22.865 5.00493 23.0594 5.00493Z" fill="#8380C8"/>
</g>
<defs>
<clipPath id="clip0_0_1">
<rect width="24" height="24" fill="white"/>
</clipPath>
</defs>
</svg>
